<svg width="10" height="11" viewBox="0 0 10 11" xmlns="http://www.w3.org/2000/svg">
    <path d="M1.41 8.442h1.154v1.151A1.407 1.407 0 0 0 3.974 11H8.59A1.413 1.413 0 0 0 10 9.593V4.038a1.407 1.407 0 0 0-1.41-1.407H7.497V1.407A1.406 1.406 0 0 0 6.087 0H1.41A1.413 1.413 0 0 0 0 1.407v5.628a1.406 1.406 0 0 0 1.41 1.407zm7.82-4.404v5.555a.64.64 0 0 1-.64.64H3.974a.643.643 0 0 1-.64-.64V4.038a.64.64 0 0 1 .64-.64H8.59a.643.643 0 0 1 .64.64zM.77 1.407a.64.64 0 0 1 .64-.64h4.677a.642.642 0 0 1 .641.64v1.224H3.974a1.413 1.413 0 0 0-1.41 1.407v3.637H1.41a.643.643 0 0 1-.64-.64V1.407z" fill="#01022E" fill-rule="nonzero"/>
</svg>
