<svg width="31" height="20" viewBox="0 0 31 20" xmlns="http://www.w3.org/2000/svg">
    <g fill="#01022E" fill-rule="nonzero">
        <path d="M25.919 2A.956.956 0 0 0 26.03.633a1.001 1.001 0 0 0-1.393-.11l-1.905 1.593C20.591.887 18.136 0 15.5 0 7.07 0 .458 9.056.18 9.441a.954.954 0 0 0 0 1.118c.156.216 2.303 3.15 5.64 5.692l-1.277 1.068a.956.956 0 0 0-.112 1.365c.195.225.473.34.752.34a.995.995 0 0 0 .64-.23l1.656-1.385c.031.02 1.613-1.31 1.587-1.326L25.919 2zM11.55 10c0-2.137 1.772-3.876 3.95-3.876.68 0 1.32.17 1.878.467l-5.604 4.683A3.772 3.772 0 0 1 11.55 10zm-9.324 0C3.767 8.09 9.216 1.938 15.5 1.938c1.991 0 3.898.619 5.623 1.524l-2.18 1.822A5.942 5.942 0 0 0 15.5 4.187c-3.267 0-5.925 2.608-5.925 5.813 0 .93.23 1.807.628 2.587l-2.836 2.37C4.887 13.13 3.028 10.993 2.227 10zM15.5 13.876c-.286 0-.565-.032-.833-.089l-1.731 1.446c.777.368 1.645.58 2.563.58 3.267 0 5.925-2.607 5.925-5.813 0-.575-.089-1.128-.248-1.653L19.438 9.8c.004.067.01.133.01.2.001 2.137-1.77 3.876-3.949 3.876z"/>
        <path d="M30.819 9.441c-.143-.199-1.97-2.7-4.86-5.077L24.436 5.66a29.545 29.545 0 0 1 4.336 4.34c-1.538 1.911-6.975 8.062-13.273 8.062-1.556 0-3.06-.379-4.47-.975l-1.635 1.394c1.861.908 3.92 1.518 6.104 1.518 8.431 0 15.043-9.056 15.32-9.442a.951.951 0 0 0 .001-1.117z"/>
    </g>
</svg>
